<?xml version="1.0" encoding="UTF-8"?>
<svg version="1.1" xmlns="http://www.w3.org/2000/svg" width="83" height="82">
<path d="M0 0 C2.26171875 1.1015625 2.26171875 1.1015625 4.5 2.4375 C10.18390384 5.7103285 15.8210146 5.60988255 22.22460938 5.63452148 C28.83423638 5.71639749 32.98117691 6.93529456 37.75 11.8125 C40.84561496 16.19795452 42.03193358 19.17978615 41.9375 24.5625 C40.81695665 28.67115894 39.2872359 30.35417598 36 33 C35.34 33 34.68 33 34 33 C34.66 34.11375 35.32 35.2275 36 36.375 C38 39.75 38 39.75 38 42 C39.32 42.66 40.64 43.32 42 44 C42.89740816 52.29034202 42.11294271 57.30534572 36.859375 63.8828125 C36.24578125 64.58148438 35.6321875 65.28015625 35 66 C34.195625 66.928125 33.39125 67.85625 32.5625 68.8125 C21.75392703 78.03933058 10.80196525 80.25784862 -3.07421875 79.87304688 C-5.04971201 79.84353599 -7.0261315 79.91463227 -9 80 C-9.99 80.99 -9.99 80.99 -11 82 C-13.625 82.125 -13.625 82.125 -16 82 C-16 80.68 -16 79.36 -16 78 C-17.485 77.505 -17.485 77.505 -19 77 C-19.66 77.99 -20.32 78.98 -21 80 C-22.65 79.67 -24.3 79.34 -26 79 C-26 78.154375 -26 77.30875 -26 76.4375 C-27.29206019 71.99604311 -29.48258196 70.57728128 -32.9921875 67.734375 C-37.29078177 64.0211924 -39.71573895 59.69872529 -40.31640625 53.99609375 C-40.56981305 50.33175102 -40.7962534 46.66743883 -41 43 C-41.06703125 42.0203125 -41.1340625 41.040625 -41.203125 40.03125 C-41.37473117 35.96173214 -41.34483533 33.63661906 -39.375 30 C-36.63669075 27.69405537 -34.39191441 27.1088951 -31 26 C-28.8316834 24.49916892 -26.78312214 22.9018315 -24.734375 21.2421875 C-23 20 -23 20 -21 20 C-21.05220703 19.11248047 -21.05220703 19.11248047 -21.10546875 18.20703125 C-21.31465208 12.10087015 -20.60805697 9.10589121 -16.62890625 4.3671875 C-11.71867763 -0.69611779 -6.81472289 -1.31528917 0 0 Z " fill="#323854" transform="translate(41,0)"/>
<path d="M0 0 C3.30492563 4.04804501 5.18303677 8.57848108 7.3046875 13.3203125 C9.25337714 16.40049936 10.5446135 17.05123286 14 18 C15.17402193 25.33763707 15.09377123 32.58165418 15 40 C15.9075 39.814375 16.815 39.62875 17.75 39.4375 C21 39 21 39 22.85058594 39.46655273 C25.50391626 40.12506327 27.90742861 40.11219453 30.640625 40.09765625 C31.71054687 40.09443359 32.78046875 40.09121094 33.8828125 40.08789062 C34.99398437 40.07951172 36.10515625 40.07113281 37.25 40.0625 C38.37664063 40.05798828 39.50328125 40.05347656 40.6640625 40.04882812 C43.44276217 40.03705397 46.22135409 40.0206084 49 40 C49 40.66 49 41.32 49 42 C47.09375 43.40234375 47.09375 43.40234375 44.5 44.9375 C43.6646875 45.44152344 42.829375 45.94554687 41.96875 46.46484375 C34.96443386 50.08681249 29.40238888 51.43847163 21.5 51.1875 C20.67757812 51.17396484 19.85515625 51.16042969 19.0078125 51.14648438 C17.00491779 51.11155016 15.00236644 51.05776057 13 51 C12.525625 51.969375 12.05125 52.93875 11.5625 53.9375 C10 57 10 57 9 58 C7.33382885 58.04063832 5.66611905 58.042721 4 58 C4 56.68 4 55.36 4 54 C2.515 53.505 2.515 53.505 1 53 C0.34 53.99 -0.32 54.98 -1 56 C-2.65 55.67 -4.3 55.34 -6 55 C-5.99097656 54.2265625 -5.98195313 53.453125 -5.97265625 52.65625 C-6.17837987 45.42908985 -7.19638172 41.82626846 -12.34375 36.7421875 C-15.69424588 33.21784514 -16 29.68582782 -16 25 C-15.34 25 -14.68 25 -14 25 C-14 25.66 -14 26.32 -14 27 C-13.484375 27.2475 -12.96875 27.495 -12.4375 27.75 C-9.22815849 29.39581616 -6.12414336 31.1976096 -3 33 C-2.83222817 31.20843648 -2.66581706 29.4167455 -2.5 27.625 C-2.36078125 26.12839844 -2.36078125 26.12839844 -2.21875 24.6015625 C-1.97207053 22.10296264 -1.97207053 22.10296264 -2 20 C-3.175625 19.1028125 -3.175625 19.1028125 -4.375 18.1875 C-7.21337828 15.82218477 -8.13360227 14.5522307 -9 11 C-9.125 8.5625 -9.125 8.5625 -8 6 C-5.48496312 3.76558829 -2.80177468 1.85721283 0 0 Z " fill="#7A7C93" transform="translate(21,24)"/>
<path d="M0 0 C2.59298651 2.8976067 4 6.08955513 4 10 C-5.57439105 15.22064381 -14.05061521 16.94446448 -25 16 C-28.42832374 13.71445084 -28.58901011 12.70384847 -30 9 C-30.97563947 7.64873933 -31.97251845 6.31227263 -33 5 C-9.38162529 -3.20469678 -9.38162529 -3.20469678 0 0 Z " fill="#777397" transform="translate(71,36)"/>
<path d="M0 0 C0.33 0 0.66 0 1 0 C1 4.62 1 9.24 1 14 C2.98 13.67 4.96 13.34 7 13 C8.34413098 13.28670684 9.67914741 13.62021411 11 14 C12.87877624 14.08026745 14.7601615 14.10765872 16.640625 14.09765625 C17.71054687 14.09443359 18.78046875 14.09121094 19.8828125 14.08789062 C20.99398437 14.07951172 22.10515625 14.07113281 23.25 14.0625 C24.37664063 14.05798828 25.50328125 14.05347656 26.6640625 14.04882812 C29.44276217 14.03705397 32.22135409 14.0206084 35 14 C35 14.66 35 15.32 35 16 C31.85543456 18.31331761 28.42612415 20.137976 25 22 C24.37867187 22.34933594 23.75734375 22.69867188 23.1171875 23.05859375 C16.38142187 26.21503997 8.27153028 25.43263109 1 25 C0.34 24.67 -0.32 24.34 -1 24 C-0.835 22.824375 -0.67 21.64875 -0.5 20.4375 C0.27271604 13.64630549 0.0809125 6.82362061 0 0 Z " fill="#797296" transform="translate(35,50)"/>
<path d="M0 0 C2.51738638 3.14484305 4.3694853 6.40885985 6.1875 10 C6.71730469 11.03125 7.24710938 12.0625 7.79296875 13.125 C9 16 9 16 9 20 C7.609375 21.4921875 7.609375 21.4921875 5.75 22.875 C2.31380385 25.60722898 0.23800284 28.24015523 -2 32 C-3.60080151 27.99799622 -2.29279692 24.95443764 -1 21 C-1.94875 20.278125 -2.8975 19.55625 -3.875 18.8125 C-6.67281866 16.46444888 -8.17698266 14.65785485 -9 11 C-9.125 8.5625 -9.125 8.5625 -8 6 C-5.48496312 3.76558829 -2.80177468 1.85721283 0 0 Z " fill="#777297" transform="translate(21,24)"/>
<path d="M0 0 C0.66 0.33 1.32 0.66 2 1 C2 6.61 2 12.22 2 18 C-0.31 18.33 -2.62 18.66 -5 19 C-7.5 16.8125 -7.5 16.8125 -9 14 C-9 9.21166604 -4.87868173 4.92749738 -1.75 1.625 C-1.1725 1.08875 -0.595 0.5525 0 0 Z " fill="#F7070A" transform="translate(30,48)"/>
<path d="M0 0 C2.46800047 1.15173355 4.04783565 2.04783565 6 4 C6.3359375 7.1171875 6.3359375 7.1171875 6.375 10.875 C6.40335938 12.10992187 6.43171875 13.34484375 6.4609375 14.6171875 C6 18 6 18 4.1640625 20.4453125 C2 22 2 22 -1 22 C-1.22595954 18.89685213 -1.42770896 15.79259193 -1.625 12.6875 C-1.68945312 11.80642578 -1.75390625 10.92535156 -1.8203125 10.01757812 C-1.871875 9.17001953 -1.9234375 8.32246094 -1.9765625 7.44921875 C-2.02893066 6.66893311 -2.08129883 5.88864746 -2.13525391 5.0847168 C-2 3 -2 3 0 0 Z " fill="#F6057A" transform="translate(37,42)"/>
<path d="M0 0 C0.66 0 1.32 0 2 0 C2.4125 0.66 2.825 1.32 3.25 2 C4.90933823 4.3664015 4.90933823 4.3664015 8.1875 4.25 C9.115625 4.1675 10.04375 4.085 11 4 C10.88590407 5.45922693 10.75834456 6.91740598 10.625 8.375 C10.55539063 9.18710938 10.48578125 9.99921875 10.4140625 10.8359375 C10 13 10 13 8 15 C3.94738713 15.34490322 2.45245824 15.30163882 -1 13 C-0.67 8.71 -0.34 4.42 0 0 Z " fill="#787195" transform="translate(20,62)"/>
<path d="M0 0 C0.66 0 1.32 0 2 0 C2 0.66 2 1.32 2 2 C2.8353125 2.4021875 2.8353125 2.4021875 3.6875 2.8125 C6 4 6 4 8.5625 5.625 C10.96905979 7.24566059 10.96905979 7.24566059 14 7 C13.690625 7.804375 13.38125 8.60875 13.0625 9.4375 C11.81434483 13.62249087 11.3662304 17.66306101 11 22 C10.7421875 21.41992188 10.484375 20.83984375 10.21875 20.2421875 C8.90188561 17.81949468 7.39335879 16.12265398 5.5 14.125 C1.44365025 9.58796015 0 6.14470055 0 0 Z " fill="#747294" transform="translate(5,49)"/>
<path d="M0 0 C0 3 0 3 -1.390625 4.39453125 C-2.00421875 4.86246094 -2.6178125 5.33039062 -3.25 5.8125 C-6.65892621 8.57144839 -8.76448341 11.24433214 -11 15 C-12.11729605 12.20675987 -11.93322459 10.53257211 -11.5 7.5 C-9.31036868 2.39086025 -5.76869793 0 0 0 Z " fill="#ED0C7D" transform="translate(30,41)"/>
<path d="M0 0 C3 1 3 1 4 3 C7.02934491 3.65772428 7.02934491 3.65772428 10 4 C10 5.32 10 6.64 10 8 C6.75 8.8125 6.75 8.8125 3 9 C0.5 6.8125 0.5 6.8125 -1 4 C-0.75 1.6875 -0.75 1.6875 0 0 Z " fill="#F40A7A" transform="translate(22,58)"/>
<path d="M0 0 C4.455 0.99 4.455 0.99 9 2 C8.67 3.32 8.34 4.64 8 6 C2.25 6.125 2.25 6.125 0 5 C0 3.35 0 1.7 0 0 Z " fill="#303B56" transform="translate(20,71)"/>
<path d="M0 0 C4 3 4 3 4.390625 5.69921875 C4.34421875 6.68535156 4.2978125 7.67148437 4.25 8.6875 C4.21390625 9.68136719 4.1778125 10.67523438 4.140625 11.69921875 C4.09421875 12.45847656 4.0478125 13.21773437 4 14 C3.01 14.33 2.02 14.66 1 15 C0.67 10.05 0.34 5.1 0 0 Z " fill="#F8050A" transform="translate(35,45)"/>
</svg>
