<?xml version="1.0" encoding="UTF-8"?>
<svg version="1.1" xmlns="http://www.w3.org/2000/svg" width="83" height="82">
<path d="M0 0 C1.24652106 0.522917 2.47413762 1.09167394 3.6875 1.6875 C9.28225092 4.40330533 15.22510571 5.69547536 21.26049805 7.07299805 C26.04537953 8.23034156 29.43766975 9.38838851 33 13 C34.14423449 16.35097244 34.13200586 17.60398243 33 21 C32.31749107 27.2992218 32.89148238 31.92723403 36.125 37.40625 C37 39 37 39 37 41 C38.32 41.66 39.64 42.32 41 43 C41.89740816 51.29034202 41.11294271 56.30534572 35.859375 62.8828125 C35.24578125 63.58148438 34.6321875 64.28015625 34 65 C33.195625 65.928125 32.39125 66.85625 31.5625 67.8125 C21.73366311 76.20297052 10.86303944 79.73021621 -2 79 C-16.50376749 77.65988581 -27.67237746 74.21350031 -37.484375 63.09765625 C-42.06098313 56.76353623 -41.64734443 49.52878634 -42 42 C-42.06574219 41.02289063 -42.13148437 40.04578125 -42.19921875 39.0390625 C-42.37657687 34.96594162 -42.34641392 32.6395334 -40.375 29 C-38 27 -38 27 -35.2265625 26.1328125 C-26.1609728 22.94997834 -19.2128058 15.83570492 -14 8 C-9.90600486 2.69427642 -7.1159489 -0.79066099 0 0 Z " fill="#303954" transform="translate(42,1)"/>
<path d="M0 0 C1.29282622 0.72772874 2.58169897 1.46251173 3.8671875 2.203125 C14.98460091 8.29904811 23.96720391 10.49958642 36.7421875 9.453125 C39.60741125 8.54274575 39.60741125 8.54274575 41.7421875 7.453125 C42.7498827 9.2195907 43.74810464 10.99146323 44.7421875 12.765625 C45.2990625 13.75175781 45.8559375 14.73789062 46.4296875 15.75390625 C47.7421875 18.453125 47.7421875 18.453125 47.7421875 21.453125 C38.16779645 26.67376881 29.69157229 28.39758948 18.7421875 27.453125 C15.7421875 25.453125 15.7421875 25.453125 14.9296875 23.140625 C13.26320906 19.36912117 11.16818233 17.69319854 7.7421875 15.453125 C4.03002974 15.453125 1.95392585 16.34077404 -1.3203125 18.078125 C-4.2578125 19.453125 -4.2578125 19.453125 -6.8203125 19.453125 C-10.2526042 18.04500533 -11.97285969 16.37278692 -14.2578125 13.453125 C-15.0703125 9.640625 -15.0703125 9.640625 -15.2578125 6.453125 C-13.8243973 5.30218575 -12.38592341 4.15754465 -10.9453125 3.015625 C-9.74455078 2.05849609 -9.74455078 2.05849609 -8.51953125 1.08203125 C-4.99889092 -1.45355946 -4.02555772 -1.9114159 0 0 Z " fill="#787498" transform="translate(27.2578125,24.546875)"/>
<path d="M0 0 C0.66 0 1.32 0 2 0 C2 0.66 2 1.32 2 2 C3.95420304 3.00315756 5.88258477 3.95412725 7.9296875 4.75390625 C14.09211197 7.31539594 16.77868556 11.28948803 20 17 C24.96337182 16.35260368 29.78877368 15.42651818 34.66796875 14.3046875 C37 14 37 14 38.79321289 14.47485352 C41.46779191 15.11131988 43.89163914 15.11227852 46.640625 15.09765625 C47.71054687 15.09443359 48.78046875 15.09121094 49.8828125 15.08789062 C50.99398437 15.07951172 52.10515625 15.07113281 53.25 15.0625 C54.37664063 15.05798828 55.50328125 15.05347656 56.6640625 15.04882812 C59.44276217 15.03705397 62.22135409 15.0206084 65 15 C65 15.66 65 16.32 65 17 C61.85543456 19.31331761 58.42612415 21.137976 55 23 C54.37867188 23.34933594 53.75734375 23.69867188 53.1171875 24.05859375 C41.96766767 29.28336874 26.73187875 25.93533445 15.69921875 22.2265625 C8.81172006 19.31107762 3.55146127 13.42614363 0.5 6.6875 C0 4 0 4 0 0 Z " fill="#787297" transform="translate(5,49)"/>
<path d="M0 0 C2.85913111 1.56791061 4.49804046 3.08352377 6 6 C6.72614519 10.74744921 6.8775146 15.27053819 6 20 C3.48929587 23.36082968 1.04717824 24.66437237 -2.9375 25.8125 C-3.77152344 26.06644531 -4.60554688 26.32039063 -5.46484375 26.58203125 C-8.39065116 27.06440628 -10.19533874 26.97154932 -13 26 C-16.64550291 22.38612835 -19.36420044 17.95536347 -19.5625 12.75 C-18.68892794 6.92618629 -18.68892794 6.92618629 -16 4 C-10.9961037 0.72584563 -5.90990841 -2.5520059 0 0 Z " fill="#F5067A" transform="translate(37,40)"/>
<path d="M0 0 C2.71658116 1.31948228 3.63644973 2.47594741 5.1875 5.0625 C5.48046875 7.859375 5.48046875 7.859375 5.375 10.8125 C5.34792969 11.79734375 5.32085937 12.7821875 5.29296875 13.796875 C5.25816406 14.54453125 5.22335938 15.2921875 5.1875 16.0625 C-4.32862903 19.93346774 -4.32862903 19.93346774 -7.8125 19.0625 C-10.20868862 16.54019619 -11.58630471 14.55016901 -12.1171875 11.05859375 C-12.02819549 7.70868006 -11.55356224 5.78983886 -9.125 3.40625 C-6.03599563 1.30011066 -3.77098459 0.08379966 0 0 Z " fill="#FE0003" transform="translate(33.8125,42.9375)"/>
<path d="" fill="#2C3853" transform="translate(0,0)"/>
</svg>
