<?xml version="1.0" encoding="UTF-8"?>
<svg version="1.1" xmlns="http://www.w3.org/2000/svg" width="25" height="112">
<path d="M0 0 C2.31 0 4.62 0 7 0 C12.50301794 12.16213208 11.20800058 27.50417418 11.25 40.625 C11.25517639 41.36236389 11.26035278 42.09972778 11.26568604 42.85943604 C11.33014101 54.53226461 11.16841458 66.68270794 8 78 C8.5775 78.20625 9.155 78.4125 9.75 78.625 C12.96887185 80.59208836 14.18874311 82.69248741 16 86 C16.53119462 88.85525877 16.51639547 91.60377261 16.4375 94.5 C16.44458984 95.23347656 16.45167969 95.96695313 16.45898438 96.72265625 C16.3930878 102.38976162 15.29971324 106.67061304 11.18359375 110.83984375 C6.77516405 113.18206847 1.81513992 112.83541362 -3 112 C-6.01202467 109.93081498 -7.37686273 107.24627455 -9 104 C-9.17809504 101.06873077 -9.2776927 98.18309491 -9.3125 95.25 C-9.34150391 94.45078125 -9.37050781 93.6515625 -9.40039062 92.828125 C-9.45890185 87.3550753 -8.62220743 84.33903657 -5 80 C-3.91827515 79.09181519 -3.91827515 79.09181519 -2.81469727 78.1652832 C-0.73265467 76.16062097 -0.73265467 76.16062097 -1.03808594 73.57202148 C-1.26786133 72.61884033 -1.49763672 71.66565918 -1.734375 70.68359375 C-3.4682936 61.52681563 -3.29937123 52.42901001 -3.26074219 43.13500977 C-3.25003401 40.07222643 -3.26068109 37.01003106 -3.2734375 33.94726562 C-3.29002815 9.87008445 -3.29002815 9.87008445 0 0 Z " fill="#35130C" transform="translate(9,0)"/>
<path d="M0 0 C3.4375 0.6875 3.4375 0.6875 5.8125 3.0625 C9.02663227 8.25455982 8.92301012 12.64843554 8.4375 18.6875 C6.90446367 22.8485986 6.12846643 24.22685571 2.4375 26.6875 C-0.5 27.125 -0.5 27.125 -3.5625 26.6875 C-8.76786086 21.34145371 -8.97455642 17.15549369 -8.90234375 9.91015625 C-8.58162509 6.86885865 -8.28407251 5.30250849 -6.5 2.875 C-3.5625 0.6875 -3.5625 0.6875 0 0 Z " fill="#5E3D1D" transform="translate(12.5625,81.3125)"/>
<path d="M0 0 C0.66 0.33 1.32 0.66 2 1 C3.42966481 7.02350875 3.14763362 13.55806912 3.1328125 19.71484375 C3.13376923 20.61062637 3.13472595 21.506409 3.13571167 22.42933655 C3.13638766 24.31088329 3.13457421 26.19243244 3.13037109 28.07397461 C3.12502096 30.92632378 3.13033272 33.77851506 3.13671875 36.63085938 C3.13605774 38.47135451 3.13477611 40.31184955 3.1328125 42.15234375 C3.13483673 42.99119614 3.13686096 43.83004852 3.13894653 44.69432068 C3.07587041 60.92412959 3.07587041 60.92412959 0 64 C-0.82137252 57.05820205 -1.14802935 50.22944478 -1.1328125 43.2421875 C-1.13376923 42.2542923 -1.13472595 41.26639709 -1.13571167 40.24856567 C-1.13638741 38.17628922 -1.1345758 36.10401058 -1.13037109 34.03173828 C-1.12500269 30.87657898 -1.13034272 27.72156126 -1.13671875 24.56640625 C-1.13605808 22.54166636 -1.13477716 20.51692655 -1.1328125 18.4921875 C-1.13483673 17.55865448 -1.13686096 16.62512146 -1.13894653 15.66329956 C-1.12009153 10.35118973 -0.77291912 5.25692457 0 0 Z " fill="#634120" transform="translate(12,7)"/>
<path d="M0 0 C0.66 0.33 1.32 0.66 2 1 C3.00175349 7.36656821 3.13572171 13.63341832 3.09765625 20.06640625 C3.0962413 20.98590561 3.09482635 21.90540497 3.09336853 22.85276794 C3.08782312 25.75604671 3.07528117 28.65924501 3.0625 31.5625 C3.05747793 33.54492075 3.05291627 35.52734273 3.04882812 37.50976562 C3.03787164 42.3398742 3.02064542 47.16992351 3 52 C2.67 52 2.34 52 2 52 C1.67 43.09 1.34 34.18 1 25 C0.34 25.66 -0.32 26.32 -1 27 C-1.02721831 23.9999376 -1.04694378 21.00012744 -1.0625 18 C-1.07087891 17.16082031 -1.07925781 16.32164063 -1.08789062 15.45703125 C-1.10824033 10.20680661 -0.76368207 5.19544338 0 0 Z " fill="#5B3A1B" transform="translate(12,7)"/>
<path d="M0 0 C2.375 0.3125 2.375 0.3125 5 1 C7.53259804 4.79889706 7.60338067 7.54426583 7 12 C5.75 14 5.75 14 4 15 C2.68 15 1.36 15 0 15 C0.495 14.0409375 0.495 14.0409375 1 13.0625 C2.07271225 11.23205433 2.07271225 11.23205433 2 10 C0.68 10.33 -0.64 10.66 -2 11 C-2.19622241 6.78121808 -1.80230168 3.82989106 0 0 Z " fill="#7C5631" transform="translate(10,87)"/>
</svg>
