<?xml version="1.0" encoding="UTF-8"?>
<svg version="1.1" xmlns="http://www.w3.org/2000/svg" width="350" height="400">
<path d="M0 0 C115.5 0 231 0 350 0 C350 132 350 264 350 400 C234.5 400 119 400 0 400 C0 268 0 136 0 0 Z " fill="#AD8F8A" transform="translate(0,0)"/>
<path d="M0 0 C115.5 0 231 0 350 0 C350 132 350 264 350 400 C234.5 400 119 400 0 400 C0 268 0 136 0 0 Z M21 18 C21 133.83 21 249.66 21 369 C122.97 369 224.94 369 330 369 C330 253.17 330 137.34 330 18 C228.03 18 126.06 18 21 18 Z " fill="#6E2C36" transform="translate(0,0)"/>
<path d="M0 0 C101.97 0 203.94 0 309 0 C309 115.83 309 231.66 309 351 C207.03 351 105.06 351 0 351 C0 235.17 0 119.34 0 0 Z M21 30 C21 129 21 228 21 330 C109.11 330 197.22 330 288 330 C288 231 288 132 288 30 C199.89 30 111.78 30 21 30 Z " fill="#AC8D88" transform="translate(21,18)"/>
<path d="M0 0 C0.95371569 -0.00521549 1.90743138 -0.01043099 2.89004755 -0.01580453 C3.94508651 -0.01134309 5.00012547 -0.00688164 6.08713531 -0.002285 C7.75979658 -0.00696498 7.75979658 -0.00696498 9.46624899 -0.01173949 C13.22815475 -0.01975999 16.98990101 -0.01338008 20.75180817 -0.00710678 C23.43848397 -0.00981485 26.12514852 -0.01330198 28.81182098 -0.0177269 C35.36685392 -0.0266385 41.92184115 -0.02469106 48.4768759 -0.01890162 C53.80242579 -0.01439206 59.12796285 -0.01376915 64.4535141 -0.01594925 C65.21033929 -0.01625572 65.96716448 -0.01656218 66.74692377 -0.01687793 C68.28421025 -0.01751736 69.82149672 -0.01816579 71.35878319 -0.01882312 C85.78726031 -0.02453158 100.21571205 -0.01796043 114.64418501 -0.00722238 C127.03505258 0.0017136 139.42588268 0.0001617 151.81674957 -0.00905991 C166.19221123 -0.01975343 180.56765063 -0.02398221 194.94311571 -0.01783538 C196.47487163 -0.01719825 198.00662756 -0.01656951 199.53838348 -0.01594925 C200.29211419 -0.0156407 201.04584489 -0.01533215 201.82241592 -0.01501425 C207.14399345 -0.01328455 212.46555691 -0.01620831 217.78713226 -0.02090836 C224.26888134 -0.02650701 230.75058194 -0.02502223 237.23232543 -0.01434687 C240.54190454 -0.00907639 243.85138564 -0.00812617 247.16096687 -0.01364517 C250.74231405 -0.01906882 254.32343002 -0.01230528 257.90476227 -0.002285 C258.95980123 -0.00674645 260.01484019 -0.01120789 261.10185003 -0.01580453 C262.05556572 -0.01058903 263.00928142 -0.00537354 263.99189758 0 C264.8193632 0.0003247 265.64682881 0.00064941 266.49936914 0.00098395 C268.49594879 0.25168228 268.49594879 0.25168228 270.49594879 2.25168228 C270.74549645 4.46742159 270.74549645 4.46742159 270.74483776 7.2895174 C270.75173595 8.89866916 270.75173595 8.89866916 270.75877351 10.54032904 C270.75105816 12.32234903 270.75105816 12.32234903 270.74318695 14.14036942 C270.74560137 15.39502327 270.74801578 16.64967713 270.75050336 17.9423508 C270.75694011 21.43622555 270.75083088 24.92998511 270.74273908 28.42385232 C270.73617971 32.18733818 270.74110668 35.95081077 270.74462128 39.71429825 C270.74967137 47.09116623 270.74401162 54.46798949 270.73477098 61.84485192 C270.72440551 70.42694812 270.72445667 79.00903456 270.72494356 87.59113585 C270.72544457 102.89816014 270.71627174 118.20516357 270.70175934 133.51218033 C270.68766866 148.38197586 270.68058864 163.25175303 270.68125153 178.12155533 C270.68129148 179.03747212 270.68133144 179.95338891 270.68137261 180.89706076 C270.68141296 181.81135892 270.68145331 182.72565708 270.68149489 183.66766125 C270.68218393 200.57312827 270.67629962 217.47858745 270.66734168 234.38405194 C270.66431951 240.37334636 270.66326143 246.36263934 270.66280937 252.35193443 C270.66212872 259.64507363 270.65768482 266.93819962 270.64847656 274.2313332 C270.64384516 277.9559407 270.64081799 281.68053125 270.64207077 285.40514183 C270.64336005 289.43343982 270.63694459 293.46168719 270.62966156 297.48997879 C270.63121016 298.68022284 270.63275876 299.87046688 270.63435429 301.09677893 C270.63112985 302.16693902 270.6279054 303.23709911 270.62458324 304.3396883 C270.62387882 305.27081757 270.62317439 306.20194683 270.62244862 307.16129214 C270.49594879 309.25168228 270.49594879 309.25168228 269.49594879 310.25168228 C268.02691377 310.34930029 266.55319216 310.37723698 265.08091736 310.37752342 C264.12160923 310.38013117 263.16230109 310.38273892 262.17392302 310.38542569 C260.57429929 310.3820796 260.57429929 310.3820796 258.94235992 310.37866592 C257.81923417 310.38022591 256.69610841 310.38178591 255.53894854 310.38339317 C251.74400331 310.38740847 247.9490975 310.38421148 244.15415192 310.38107681 C241.44630093 310.3818801 238.73845166 310.38417401 236.0306015 310.38638687 C229.42029841 310.39084532 222.81000664 310.38986777 216.1997031 310.38697423 C210.82978718 310.38472049 205.45987445 310.38440755 200.08995819 310.38549805 C199.32715806 310.38565128 198.56435793 310.38580451 197.77844265 310.38596239 C196.22907491 310.3862821 194.67970718 310.38660631 193.13033944 310.38693498 C178.58458877 310.38978999 164.03884439 310.38650242 149.49309474 310.38113461 C136.99843747 310.37666656 124.50378949 310.37744248 112.00913239 310.38205338 C97.51722991 310.38739877 83.02533295 310.3895153 68.53342962 310.38644111 C66.98959955 310.38612255 65.44576947 310.38580817 63.90193939 310.38549805 C63.14224477 310.38534377 62.38255014 310.3851895 61.59983447 310.38503055 C56.2332191 310.38416528 50.86660721 310.38562846 45.49999237 310.3879776 C38.96440524 310.39077541 32.42883013 310.39003775 25.89324439 310.38469686 C22.55546293 310.38205957 19.21771826 310.38158896 15.87993431 310.38434601 C12.26978168 310.38705431 8.65968656 310.38368032 5.04953766 310.37866592 C3.44991393 310.38201201 3.44991393 310.38201201 1.81797457 310.38542569 C0.85866643 310.38281794 -0.1006417 310.38021019 -1.08901978 310.37752342 C-1.92348271 310.37736107 -2.75794564 310.37719872 -3.61769533 310.37703145 C-5.50405121 310.25168228 -5.50405121 310.25168228 -6.50405121 309.25168228 C-6.60298719 307.61678043 -6.63144655 305.97758051 -6.63268566 304.3396883 C-6.63591011 303.26952821 -6.63913455 302.19936812 -6.64245671 301.09677893 C-6.64013381 299.31141286 -6.64013381 299.31141286 -6.63776398 297.48997879 C-6.64002953 296.23688492 -6.64229509 294.98379105 -6.6446293 293.69272465 C-6.65077734 290.19855552 -6.6506102 286.70441021 -6.64943492 283.21023691 C-6.64923167 279.44807777 -6.65474242 275.68592644 -6.65949249 271.9237709 C-6.667816 264.54711424 -6.6705481 257.17046556 -6.67110487 249.79380459 C-6.67157922 243.8008039 -6.6736299 237.80780585 -6.6768055 231.81480598 C-6.68561665 214.8422229 -6.69022414 197.86964615 -6.68947502 180.89706076 C-6.68943507 179.98114397 -6.68939511 179.06522717 -6.68935394 178.12155533 C-6.68931306 177.20452672 -6.68927218 176.2874981 -6.68923006 175.34268074 C-6.68882344 160.47430699 -6.69839579 145.60595854 -6.71249231 130.73759211 C-6.72683567 115.48916165 -6.73376362 100.24074355 -6.73289853 84.99230617 C-6.73256586 76.42410174 -6.73534361 67.85592383 -6.74607658 59.28772545 C-6.75515481 51.99348715 -6.75737901 44.69928741 -6.75056716 37.40504593 C-6.74728835 33.68029911 -6.74729391 29.95562636 -6.75592041 26.23088646 C-6.76515879 22.20065725 -6.75904502 18.17060166 -6.75128937 14.14036942 C-6.75643293 12.95235609 -6.76157649 11.76434277 -6.76687592 10.54032904 C-6.76227713 9.4675612 -6.75767833 8.39479336 -6.75294018 7.2895174 C-6.75315755 6.35822578 -6.75337491 5.42693417 -6.75359887 4.46742159 C-6.25965408 0.08167467 -3.80884907 0.00149463 0 0 Z M-1.50405121 5.25168228 C-1.50405121 104.25168228 -1.50405121 203.25168228 -1.50405121 305.25168228 C86.60594879 305.25168228 174.71594879 305.25168228 265.49594879 305.25168228 C265.49594879 206.25168228 265.49594879 107.25168228 265.49594879 5.25168228 C177.38594879 5.25168228 89.27594879 5.25168228 -1.50405121 5.25168228 Z " fill="#6E2E38" transform="translate(43.504051208496094,42.74831771850586)"/>
<path d="M0 0 C101.97 0 203.94 0 309 0 C309 2.97 309 5.94 309 9 C207.03 9 105.06 9 0 9 C0 6.03 0 3.06 0 0 Z " fill="#A88683" transform="translate(21,379)"/>
<path d="M0 0 C1.65 0 3.3 0 5 0 C5 115.83 5 231.66 5 351 C3.35 351 1.7 351 0 351 C0 235.17 0 119.34 0 0 Z " fill="#A88784" transform="translate(6,18)"/>
<path d="M0 0 C0.99 0 1.98 0 3 0 C3 115.17 3 230.34 3 349 C2.01 349 1.02 349 0 349 C0 233.83 0 118.66 0 0 Z " fill="#AE908B" transform="translate(341,19)"/>
<path d="M0 0 C1.65 0 3.3 0 5 0 C5 2.97 5 5.94 5 9 C3.35 9 1.7 9 0 9 C0 6.03 0 3.06 0 0 Z " fill="#8C5B5E" transform="translate(340,379)"/>
<path d="M0 0 C1.65 0 3.3 0 5 0 C5 2.97 5 5.94 5 9 C3.35 9 1.7 9 0 9 C0 6.03 0 3.06 0 0 Z " fill="#A37F7D" transform="translate(6,379)"/>
<path d="M0 0 C0.99 0 1.98 0 3 0 C3 2.31 3 4.62 3 7 C2.01 7 1.02 7 0 7 C0 4.69 0 2.38 0 0 Z " fill="#AE908B" transform="translate(341,380)"/>
</svg>
